<svg xmlns="http://www.w3.org/2000/svg" width="201.557" height="40" viewBox="0 0 201.557 40">
  <g id="logoipsum-297" transform="translate(0 0)">
    <path id="Path_11956" data-name="Path 11956" d="M25.556,11.685A10,10,0,0,0,20,10V0A20,20,0,1,1,0,20H10a10,10,0,1,0,15.556-8.315Z" fill="#007dfc" fill-rule="evenodd"/>
    <path id="Path_11957" data-name="Path 11957" d="M10,0a10,10,0,0,1-.761,3.827A10,10,0,0,1,7.071,7.071,10,10,0,0,1,3.827,9.239,10,10,0,0,1,0,10V20a20,20,0,0,0,7.654-1.522,20,20,0,0,0,6.488-4.335,20,20,0,0,0,4.335-6.488A20,20,0,0,0,20,0Z" fill="#007dfc" fill-rule="evenodd"/>
    <path id="Path_11958" data-name="Path 11958" d="M125.619,14.453h-4.852V29.865h4.852Z" fill="#fff"/>
    <path id="Path_11959" data-name="Path 11959" d="M121.307,11.567a2.579,2.579,0,0,0,1.9.761,2.477,2.477,0,0,0,1.871-.761,2.709,2.709,0,0,0,.73-1.9,2.639,2.639,0,0,0-.73-1.9A2.477,2.477,0,0,0,123.209,7a2.579,2.579,0,0,0-1.9.761,2.639,2.639,0,0,0-.73,1.9A2.709,2.709,0,0,0,121.307,11.567Z" fill="#fff"/>
    <path id="Path_11960" data-name="Path 11960" d="M51.156,29.865V7.476h4.979V25.489h9.926v4.376Z" fill="#007dfc"/>
    <path id="Path_11961" data-name="Path 11961" d="M75.027,30.214a8.916,8.916,0,0,1-4.313-1.046A8.144,8.144,0,0,1,67.7,26.25a7.824,7.824,0,0,1-1.11-4.123,7.66,7.66,0,0,1,1.11-4.091,7.981,7.981,0,0,1,3.013-2.854A8.593,8.593,0,0,1,75.027,14.1,8.8,8.8,0,0,1,79.34,15.15a7.9,7.9,0,0,1,3.013,2.886,7.659,7.659,0,0,1,1.11,4.091,7.823,7.823,0,0,1-1.11,4.123,8.143,8.143,0,0,1-3.013,2.918A8.8,8.8,0,0,1,75.027,30.214Zm0-4.408a3.7,3.7,0,0,0,1.839-.444,3.108,3.108,0,0,0,1.205-1.3,4.14,4.14,0,0,0,.444-1.934,3.768,3.768,0,0,0-.444-1.871,3.109,3.109,0,0,0-1.237-1.268,3.34,3.34,0,0,0-1.808-.476,3.444,3.444,0,0,0-1.808.476,3.109,3.109,0,0,0-1.237,1.268,3.951,3.951,0,0,0-.444,1.9,4.071,4.071,0,0,0,.444,1.9,3.326,3.326,0,0,0,1.237,1.3A3.636,3.636,0,0,0,75.027,25.806Z" fill="#007dfc" fill-rule="evenodd"/>
    <path id="Path_11962" data-name="Path 11962" d="M87.306,35.89a10.617,10.617,0,0,0,4.471.888,9.594,9.594,0,0,0,4.408-.983,7.616,7.616,0,0,0,3.044-2.727,7.515,7.515,0,0,0,1.11-4.123V14.453H95.583v1.035a5.127,5.127,0,0,0-1.205-.75,6.365,6.365,0,0,0-2.822-.6,7.111,7.111,0,0,0-6.374,3.742,7.83,7.83,0,0,0-.951,3.869,7.945,7.945,0,0,0,.951,3.869,7.255,7.255,0,0,0,2.6,2.759,7.053,7.053,0,0,0,3.774,1.015,6.5,6.5,0,0,0,2.822-.6,5.653,5.653,0,0,0,1.11-.688v.973a3.106,3.106,0,0,1-1.047,2.505,4.144,4.144,0,0,1-2.822.888,5.694,5.694,0,0,1-2.505-.507,5.782,5.782,0,0,1-1.839-1.49l-2.981,2.981A7.185,7.185,0,0,0,87.306,35.89Zm6.913-11.258a3.291,3.291,0,0,1-1.744.444,3.46,3.46,0,0,1-1.776-.444,3.129,3.129,0,0,1-1.142-1.205,3.592,3.592,0,0,1-.412-1.681,3.536,3.536,0,0,1,.412-1.713,3.061,3.061,0,0,1,1.173-1.205,3.4,3.4,0,0,1,1.744-.444,3.291,3.291,0,0,1,1.744.444,2.849,2.849,0,0,1,1.142,1.205,3.763,3.763,0,0,1,0,3.425A2.9,2.9,0,0,1,94.219,24.632Z" fill="#007dfc" fill-rule="evenodd"/>
    <path id="Path_11963" data-name="Path 11963" d="M110.551,30.214a8.914,8.914,0,0,1-4.313-1.046,8.141,8.141,0,0,1-3.013-2.918,7.823,7.823,0,0,1-1.11-4.123,7.659,7.659,0,0,1,1.11-4.091,7.978,7.978,0,0,1,3.013-2.854,8.591,8.591,0,0,1,4.313-1.078,8.8,8.8,0,0,1,4.312,1.047,7.9,7.9,0,0,1,3.013,2.886,7.659,7.659,0,0,1,1.11,4.091,7.823,7.823,0,0,1-1.11,4.123,8.141,8.141,0,0,1-3.013,2.918A8.8,8.8,0,0,1,110.551,30.214Zm0-4.408a3.7,3.7,0,0,0,1.839-.444,3.112,3.112,0,0,0,1.205-1.3,4.14,4.14,0,0,0,.444-1.934,3.768,3.768,0,0,0-.444-1.871,3.107,3.107,0,0,0-1.237-1.268,3.339,3.339,0,0,0-1.807-.476,3.443,3.443,0,0,0-1.808.476,3.107,3.107,0,0,0-1.237,1.268,3.951,3.951,0,0,0-.444,1.9,4.071,4.071,0,0,0,.444,1.9,3.324,3.324,0,0,0,1.237,1.3A3.634,3.634,0,0,0,110.551,25.806Z" fill="#fff" fill-rule="evenodd"/>
    <path id="Path_11964" data-name="Path 11964" d="M137.281,30.182a6.708,6.708,0,0,1-2.854-.6,6.063,6.063,0,0,1-1.236-.757v7.544H128.4V14.453h4.852v1.064a6,6,0,0,1,1.173-.747,6.424,6.424,0,0,1,2.854-.634,7.212,7.212,0,0,1,6.533,3.9,8.482,8.482,0,0,1,.983,4.123,8.482,8.482,0,0,1-.983,4.123,7.212,7.212,0,0,1-6.533,3.9Zm-.887-4.376a3.355,3.355,0,0,0,3.044-1.776,3.884,3.884,0,0,0,.444-1.871,3.951,3.951,0,0,0-.444-1.9,3.107,3.107,0,0,0-1.237-1.268,3.278,3.278,0,0,0-1.776-.476,3.442,3.442,0,0,0-1.807.476,3.168,3.168,0,0,0-1.205,1.268,3.951,3.951,0,0,0-.444,1.9,4.125,4.125,0,0,0,.412,1.871,3.324,3.324,0,0,0,1.237,1.3A3.383,3.383,0,0,0,136.394,25.806Z" fill="#fff" fill-rule="evenodd"/>
    <path id="Path_11965" data-name="Path 11965" d="M149.546,29.9a10.591,10.591,0,0,0,2.695.349,7.16,7.16,0,0,0,4.567-1.332,4.305,4.305,0,0,0,1.712-3.583,4.479,4.479,0,0,0-.539-2.347,4.194,4.194,0,0,0-1.4-1.459,8.33,8.33,0,0,0-1.808-.856q-.951-.317-1.807-.539a6.541,6.541,0,0,1-1.4-.507.856.856,0,0,1-.539-.761.716.716,0,0,1,.412-.666,2.4,2.4,0,0,1,1.237-.254,4.746,4.746,0,0,1,1.744.349,4.055,4.055,0,0,1,1.649,1.205l2.759-2.791a6.369,6.369,0,0,0-2.727-2,9.182,9.182,0,0,0-3.615-.7,7.829,7.829,0,0,0-3.266.634,5.089,5.089,0,0,0-2.157,1.744,4.342,4.342,0,0,0-.761,2.569,4.524,4.524,0,0,0,.539,2.315,4.01,4.01,0,0,0,1.395,1.4,8.1,8.1,0,0,0,1.808.793q.951.285,1.808.539a5.5,5.5,0,0,1,1.4.539.914.914,0,0,1,.571.856.773.773,0,0,1-.476.7,2.669,2.669,0,0,1-1.3.254,5.78,5.78,0,0,1-2.283-.444,5.56,5.56,0,0,1-1.808-1.3L145.2,27.391a8.61,8.61,0,0,0,1.9,1.522A10.733,10.733,0,0,0,149.546,29.9Z" fill="#fff"/>
    <path id="Path_11966" data-name="Path 11966" d="M167.368,30.214a8.068,8.068,0,0,1-3.773-.856,6.622,6.622,0,0,1-2.537-2.41,6.832,6.832,0,0,1-.92-3.552V14.453h4.852v8.88a3.326,3.326,0,0,0,.254,1.364,2.092,2.092,0,0,0,.824.888,2.523,2.523,0,0,0,1.3.317,2.254,2.254,0,0,0,1.713-.666,2.721,2.721,0,0,0,.634-1.9v-8.88h4.852v8.911a6.893,6.893,0,0,1-.92,3.583,6.622,6.622,0,0,1-2.537,2.41A7.878,7.878,0,0,1,167.368,30.214Z" fill="#fff"/>
    <path id="Path_11967" data-name="Path 11967" d="M181.831,14.453h-4.852V29.865h4.852V20.858a2.592,2.592,0,0,1,.317-1.332,2.312,2.312,0,0,1,.92-.825,2.632,2.632,0,0,1,1.3-.317,2.425,2.425,0,0,1,1.744.666,2.265,2.265,0,0,1,.73,1.808v9.006h4.852V20.858a2.592,2.592,0,0,1,.317-1.332,2.305,2.305,0,0,1,.92-.825,2.629,2.629,0,0,1,1.3-.317,2.425,2.425,0,0,1,1.744.666,2.267,2.267,0,0,1,.729,1.808v9.006h4.853V20.319a6.257,6.257,0,0,0-.825-3.3,5.3,5.3,0,0,0-2.188-2.125,6.334,6.334,0,0,0-3.14-.761,6.725,6.725,0,0,0-3.266.793,5.924,5.924,0,0,0-1.657,1.3,5.392,5.392,0,0,0-1.61-1.367,5.681,5.681,0,0,0-2.885-.729,6.417,6.417,0,0,0-3.076.729,5.314,5.314,0,0,0-1.079.727Z" fill="#fff"/>
  </g>
</svg>
