<svg xmlns="http://www.w3.org/2000/svg" xmlns:xlink="http://www.w3.org/1999/xlink" width="186.309" height="58.362" viewBox="0 0 186.309 58.362">
  <defs>
    <clipPath id="clip-path">
      <rect id="Rectangle_75" data-name="Rectangle 75" width="186.309" height="58.362" transform="translate(0)" fill="none"/>
    </clipPath>
    <clipPath id="clip-path-2">
      <rect id="Rectangle_74" data-name="Rectangle 74" width="186.309" height="58.362" fill="none"/>
    </clipPath>
  </defs>
  <g id="Group_58994" data-name="Group 58994" transform="translate(-482.563 -103.257)">
    <g id="Group_58993" data-name="Group 58993" transform="translate(482.563 103.257)" clip-path="url(#clip-path)">
      <g id="Group_58992" data-name="Group 58992" transform="translate(0)">
        <g id="Group_58991" data-name="Group 58991" clip-path="url(#clip-path-2)">
          <path id="Path_11544" data-name="Path 11544" d="M29.181,0H157.128a29.181,29.181,0,0,1,0,58.362H29.181A29.181,29.181,0,0,1,29.181,0" fill="#212f4a"/>
          <g id="Group_59119" data-name="Group 59119">
            <path id="Path_11546" data-name="Path 11546" d="M166.339,38.18v6.644h2a3.446,3.446,0,0,0,2.512-.926,3.5,3.5,0,0,0,.01-4.8,3.447,3.447,0,0,0-2.522-.916Zm1.99.967a2.392,2.392,0,0,1,1.768.644,2.264,2.264,0,0,1,.657,1.7,2.27,2.27,0,0,1-2.425,2.376h-.966V39.147Z" transform="translate(-98.558 -22.622)" fill="#fff"/>
            <path id="Path_11547" data-name="Path 11547" d="M184.355,42.084a2.389,2.389,0,0,0-1.777.745,2.679,2.679,0,0,0,0,3.665,2.482,2.482,0,0,0,3.555.01,2.539,2.539,0,0,0,.744-1.842,2.5,2.5,0,0,0-.744-1.832,2.42,2.42,0,0,0-1.777-.745m.01.966a1.386,1.386,0,0,1,1.043.473,1.623,1.623,0,0,1,.425,1.148,1.66,1.66,0,0,1-.425,1.147,1.45,1.45,0,0,1-2.106,0,1.652,1.652,0,0,1-.415-1.147,1.617,1.617,0,0,1,.415-1.148,1.412,1.412,0,0,1,1.063-.473" transform="translate(-107.75 -24.936)" fill="#fff"/>
            <path id="Path_11548" data-name="Path 11548" d="M200.794,45.386l-1.459-3.3h-.348l-1.439,3.342L196.3,42.195H195.22l2.106,5.054h.348l1.488-3.292,1.487,3.292H201l2.106-5.054h-1.082Z" transform="translate(-115.67 -24.936)" fill="#fff"/>
            <path id="Path_11549" data-name="Path 11549" d="M219.174,42.084a1.806,1.806,0,0,0-1.42.6v-.493h-.947v4.943h1.014V44.188A1.074,1.074,0,0,1,218.9,43.04a1.038,1.038,0,0,1,1.034,1.148v2.949h1.014v-3.09a1.75,1.75,0,0,0-1.777-1.963" transform="translate(-128.461 -24.936)" fill="#fff"/>
            <rect id="Rectangle_73" data-name="Rectangle 73" width="1.014" height="7.55" transform="translate(93.902 14.651)" fill="#fff"/>
            <path id="Path_11550" data-name="Path 11550" d="M238.3,42.084a2.39,2.39,0,0,0-1.777.745,2.679,2.679,0,0,0,0,3.665,2.483,2.483,0,0,0,3.555.01,2.54,2.54,0,0,0,.744-1.842,2.5,2.5,0,0,0-.744-1.832,2.422,2.422,0,0,0-1.778-.745m.01.966a1.386,1.386,0,0,1,1.043.473,1.624,1.624,0,0,1,.425,1.148,1.66,1.66,0,0,1-.425,1.147,1.45,1.45,0,0,1-2.106,0,1.654,1.654,0,0,1-.415-1.147,1.618,1.618,0,0,1,.415-1.148,1.412,1.412,0,0,1,1.063-.473" transform="translate(-139.713 -24.936)" fill="#fff"/>
            <path id="Path_11551" data-name="Path 11551" d="M252.3,42.084a2.274,2.274,0,0,0-2,1.057l.589.624a1.69,1.69,0,0,1,1.314-.735.937.937,0,0,1,1.014,1.057v.322h-1.343c-1.072,0-1.748.554-1.748,1.409a1.465,1.465,0,0,0,1.652,1.429,1.834,1.834,0,0,0,1.517-.665v.554h.947v-2.99a1.848,1.848,0,0,0-1.942-2.064m-.309,4.349c-.493,0-.831-.242-.831-.654s.28-.6.841-.6h1.217v.09a1.175,1.175,0,0,1-1.227,1.168" transform="translate(-148.203 -24.936)" fill="#fff"/>
            <path id="Path_11552" data-name="Path 11552" d="M266.856,39.168a1.905,1.905,0,0,0-1.584-.715,2.131,2.131,0,0,0-1.661.745,2.91,2.91,0,0,0,0,3.684,2.121,2.121,0,0,0,1.661.735,1.866,1.866,0,0,0,1.662-.815v.7h.947v-7.55h-1.024Zm-1.41,3.483A1.364,1.364,0,0,1,264.4,42.2a1.65,1.65,0,0,1-.416-1.168,1.626,1.626,0,0,1,.416-1.158,1.417,1.417,0,0,1,2.048-.03,1.6,1.6,0,0,1,.425,1.2,1.436,1.436,0,0,1-1.43,1.611" transform="translate(-155.803 -21.306)" fill="#fff"/>
            <path id="Path_11553" data-name="Path 11553" d="M287.057,42.084a2.391,2.391,0,0,0-1.777.745,2.681,2.681,0,0,0,0,3.665,2.483,2.483,0,0,0,3.555.01,2.537,2.537,0,0,0,.744-1.842,2.5,2.5,0,0,0-.744-1.832,2.42,2.42,0,0,0-1.778-.745m.011.966a1.385,1.385,0,0,1,1.043.473,1.626,1.626,0,0,1,.425,1.148,1.662,1.662,0,0,1-.425,1.147,1.386,1.386,0,0,1-1.053.453,1.368,1.368,0,0,1-1.052-.453,1.649,1.649,0,0,1-.416-1.147,1.613,1.613,0,0,1,.416-1.148,1.41,1.41,0,0,1,1.063-.473" transform="translate(-168.604 -24.936)" fill="#fff"/>
            <path id="Path_11554" data-name="Path 11554" d="M302.1,42.084a1.808,1.808,0,0,0-1.421.6v-.493h-.946v4.943h1.013V44.188a1.074,1.074,0,0,1,1.083-1.148,1.038,1.038,0,0,1,1.034,1.148v2.949h1.013v-3.09a1.75,1.75,0,0,0-1.777-1.963" transform="translate(-177.598 -24.936)" fill="#fff"/>
            <path id="Path_11555" data-name="Path 11555" d="M321.423,44.565c-.619,0-.937-.222-.937-.856V41.384H321.9v-.916h-1.411v-1.3h-1.024v1.3h-.773v.916h.773V43.8a1.56,1.56,0,0,0,1.749,1.722,3.991,3.991,0,0,0,.84-.111v-.9c-.28.03-.483.051-.628.051" transform="translate(-188.828 -23.208)" fill="#fff"/>
            <path id="Path_11556" data-name="Path 11556" d="M331.85,38.454a1.733,1.733,0,0,0-1.373.594V35.957h-1.013v7.55h1.013v-2.94a1.074,1.074,0,0,1,1.082-1.147,1.032,1.032,0,0,1,1.033,1.147v2.94h1.015v-3.09a1.756,1.756,0,0,0-1.758-1.963" transform="translate(-195.212 -21.306)" fill="#fff"/>
            <path id="Path_11557" data-name="Path 11557" d="M347.013,44.349a2.238,2.238,0,0,0-.629-1.621,2.074,2.074,0,0,0-1.564-.644,2.318,2.318,0,0,0-1.749.755,2.721,2.721,0,0,0,.019,3.675,2.447,2.447,0,0,0,1.826.735,2.6,2.6,0,0,0,1.893-.8l-.482-.725a2,2,0,0,1-1.382.584,1.468,1.468,0,0,1-1.546-1.3h3.536a3.292,3.292,0,0,0,.077-.665m-2.231-1.369A1.169,1.169,0,0,1,346,44.188h-2.579a1.408,1.408,0,0,1,1.363-1.208" transform="translate(-202.856 -24.936)" fill="#fff"/>
            <path id="Path_11558" data-name="Path 11558" d="M176.283,79.533l-5.271-12.666h-.652l-5.271,12.666h2.047l.851-2.077h5.38l.852,2.077Zm-7.589-3.794,1.992-5.172,1.975,5.172Z" transform="translate(-97.817 -39.62)" fill="#fff"/>
            <path id="Path_11559" data-name="Path 11559" d="M200.9,74.7a3.666,3.666,0,0,0-3.1,1.529V74.9h-1.775V87.569h1.9V83.058A3.583,3.583,0,0,0,200.9,84.38,3.989,3.989,0,0,0,204.038,83a5.487,5.487,0,0,0,0-6.927A3.989,3.989,0,0,0,200.9,74.7m-.308,7.871a2.641,2.641,0,0,1-1.9-.774,3.073,3.073,0,0,1-.779-2.265c0-1.982,1.213-3.02,2.681-3.02a2.522,2.522,0,0,1,1.938.85,3.1,3.1,0,0,1,.779,2.189,3.051,3.051,0,0,1-.779,2.171,2.523,2.523,0,0,1-1.938.849" transform="translate(-116.152 -44.259)" fill="#fff"/>
            <path id="Path_11560" data-name="Path 11560" d="M228.059,74.7a3.666,3.666,0,0,0-3.1,1.529V74.9h-1.775V87.569h1.9V83.058a3.583,3.583,0,0,0,2.971,1.321A3.989,3.989,0,0,0,231.192,83a5.487,5.487,0,0,0,0-6.927,3.989,3.989,0,0,0-3.134-1.378m-.308,7.871a2.641,2.641,0,0,1-1.9-.774,3.073,3.073,0,0,1-.779-2.265c0-1.982,1.214-3.02,2.681-3.02a2.522,2.522,0,0,1,1.938.85,3.1,3.1,0,0,1,.779,2.189,3.051,3.051,0,0,1-.779,2.171,2.523,2.523,0,0,1-1.938.849" transform="translate(-132.241 -44.259)" fill="#fff"/>
            <path id="Path_11561" data-name="Path 11561" d="M264.587,66.868a3.963,3.963,0,0,0-2.681.944,3.059,3.059,0,0,0-1.087,2.435c0,1.6,1.033,2.624,2.79,3.454l1.322.642c1.25.6,1.757.982,1.757,1.869,0,1.057-.833,1.736-2.065,1.736a3.768,3.768,0,0,1-3.134-1.982l-1.359,1.076a5.04,5.04,0,0,0,4.51,2.7,4.149,4.149,0,0,0,2.862-.982,3.32,3.32,0,0,0,1.141-2.624c0-1.642-.924-2.623-2.862-3.548l-1.341-.642c-1.214-.6-1.666-.925-1.666-1.774,0-.982.8-1.51,1.811-1.51a2.9,2.9,0,0,1,2.518,1.51l1.34-1.076a4.358,4.358,0,0,0-3.858-2.227" transform="translate(-154.131 -39.62)" fill="#fff"/>
            <path id="Path_11562" data-name="Path 11562" d="M288.271,79.347c-1.159,0-1.757-.415-1.757-1.6v-4.36h2.645V71.665h-2.645V69.23h-1.919v2.435h-1.449v1.718h1.449v4.53c0,2.171,1.231,3.228,3.278,3.228a7.508,7.508,0,0,0,1.576-.208v-1.68c-.525.057-.905.095-1.177.095" transform="translate(-167.767 -41.02)" fill="#fff"/>
            <path id="Path_11563" data-name="Path 11563" d="M305.334,74.7a4.483,4.483,0,0,0-3.333,1.4,5.024,5.024,0,0,0,0,6.871,4.654,4.654,0,0,0,6.666.019,4.76,4.76,0,0,0,1.394-3.454,4.686,4.686,0,0,0-1.394-3.436,4.541,4.541,0,0,0-3.333-1.4m.018,1.812a2.6,2.6,0,0,1,1.956.887,3.047,3.047,0,0,1,.8,2.152,3.112,3.112,0,0,1-.8,2.152,2.6,2.6,0,0,1-1.974.849,2.57,2.57,0,0,1-1.974-.849,3.1,3.1,0,0,1-.779-2.152,3.035,3.035,0,0,1,.779-2.152,2.643,2.643,0,0,1,1.992-.887" transform="translate(-178.135 -44.259)" fill="#fff"/>
            <path id="Path_11564" data-name="Path 11564" d="M332.586,74.974a3.022,3.022,0,0,0-2.59,1.3V75.069H328.22v9.268h1.9V79.391a2.423,2.423,0,0,1,2.608-2.567h.579V75.069a2.814,2.814,0,0,0-.724-.095" transform="translate(-194.475 -44.423)" fill="#fff"/>
            <path id="Path_11565" data-name="Path 11565" d="M350.9,78.943a4.2,4.2,0,0,0-1.177-3.039,3.888,3.888,0,0,0-2.934-1.208,4.34,4.34,0,0,0-3.278,1.416A5.1,5.1,0,0,0,343.547,83a4.584,4.584,0,0,0,3.423,1.378,4.881,4.881,0,0,0,3.551-1.491l-.906-1.359a3.754,3.754,0,0,1-2.59,1.095,2.753,2.753,0,0,1-2.9-2.435h6.629a6.11,6.11,0,0,0,.145-1.246m-4.184-2.567A2.193,2.193,0,0,1,349,78.641h-4.836a2.638,2.638,0,0,1,2.553-2.265" transform="translate(-202.751 -44.259)" fill="#fff"/>
            <path id="Path_11566" data-name="Path 11566" d="M113.916,47.994a6.323,6.323,0,0,1,3.229-5.322,7.1,7.1,0,0,0-5.468-2.764c-2.3-.225-4.529,1.288-5.7,1.288-1.192,0-3-1.264-4.945-1.229a7.352,7.352,0,0,0-6.125,3.5c-2.649,4.294-.675,10.6,1.867,14.075,1.268,1.7,2.75,3.6,4.693,3.532,1.9-.071,2.611-1.134,4.9-1.134,2.271,0,2.939,1.134,4.92,1.092,2.037-.029,3.324-1.707,4.548-3.42a13.722,13.722,0,0,0,2.081-3.963,6.26,6.26,0,0,1-4-5.653m-3.74-10.372a5.984,5.984,0,0,0,1.526-4.477,6.936,6.936,0,0,0-4.39,2.127,5.714,5.714,0,0,0-1.564,4.312,5.771,5.771,0,0,0,4.428-1.961" transform="translate(-55.487 -19.638)" fill="#fff"/>
          </g>
        </g>
      </g>
    </g>
  </g>
</svg>
