<svg xmlns="http://www.w3.org/2000/svg" width="46" height="46" viewBox="0 0 46 46">
  <g id="Group_59122" data-name="Group 59122" transform="translate(-132 -7398)">
    <circle id="Ellipse_1647" data-name="Ellipse 1647" cx="23" cy="23" r="23" transform="translate(132 7398)" fill="#212f4a"/>
    <g id="Group_59125" data-name="Group 59125" transform="translate(143.756 7409.755)">
      <path id="Path_119" data-name="Path 119" d="M294.617-46.487a1.318,1.318,0,0,0-1.318,1.318,1.318,1.318,0,0,0,1.318,1.318,1.318,1.318,0,0,0,1.318-1.318A1.318,1.318,0,0,0,294.617-46.487Z" transform="translate(-277.419 50.502)" fill="#fff"/>
      <path id="Path_120" data-name="Path 120" d="M291.152-45.2a5.545,5.545,0,0,0-5.538,5.538,5.545,5.545,0,0,0,5.538,5.538,5.544,5.544,0,0,0,5.537-5.538A5.544,5.544,0,0,0,291.152-45.2Zm0,9.085A3.551,3.551,0,0,1,287.6-39.66a3.551,3.551,0,0,1,3.548-3.547A3.551,3.551,0,0,1,294.7-39.66,3.551,3.551,0,0,1,291.152-36.113Z" transform="translate(-279.815 50.904)" fill="#fff"/>
      <path id="Path_121" data-name="Path 121" d="M296.926-27.059h-8.978a6.763,6.763,0,0,1-6.756-6.756v-8.978a6.763,6.763,0,0,1,6.756-6.756h8.978a6.763,6.763,0,0,1,6.756,6.756v8.978A6.763,6.763,0,0,1,296.926-27.059Zm-8.978-20.373a4.645,4.645,0,0,0-4.64,4.64v8.978a4.645,4.645,0,0,0,4.64,4.64h8.978a4.645,4.645,0,0,0,4.64-4.64v-8.978a4.645,4.645,0,0,0-4.64-4.64Z" transform="translate(-281.193 49.548)" fill="#fff"/>
    </g>
  </g>
</svg>
