<svg xmlns="http://www.w3.org/2000/svg" width="46" height="46" viewBox="0 0 46 46">
  <g id="Group_59123" data-name="Group 59123" transform="translate(-132 -7398)">
    <circle id="Ellipse_1647" data-name="Ellipse 1647" cx="23" cy="23" r="23" transform="translate(132 7398)" fill="#212f4a"/>
    <path id="Path_11684" data-name="Path 11684" d="M336.708-45.5a8.644,8.644,0,0,1-2.115.6c.34-.058.84-.673,1.04-.922a3.89,3.89,0,0,0,.7-1.28c.018-.037.031-.083-.005-.11a.118.118,0,0,0-.111.009,10.8,10.8,0,0,1-2.508.96.167.167,0,0,1-.173-.046,2.1,2.1,0,0,0-.219-.224,4.461,4.461,0,0,0-1.216-.745,4.224,4.224,0,0,0-1.863-.3,4.46,4.46,0,0,0-1.768.5,4.571,4.571,0,0,0-1.426,1.165,4.385,4.385,0,0,0-.851,1.707,4.624,4.624,0,0,0-.046,1.8c.014.1.005.114-.087.1a13.4,13.4,0,0,1-8.618-4.388c-.1-.114-.155-.114-.237.009a4.372,4.372,0,0,0,.745,5.164c.169.16.342.32.53.466a4.392,4.392,0,0,1-1.663-.466c-.1-.064-.151-.028-.16.087a2.548,2.548,0,0,0,.028.493,4.419,4.419,0,0,0,2.723,3.523,2.537,2.537,0,0,0,.552.169,4.955,4.955,0,0,1-1.631.05c-.119-.022-.164.037-.119.151a4.589,4.589,0,0,0,3.428,2.87c.155.028.311.028.466.063-.009.014-.018.014-.028.028a5.407,5.407,0,0,1-2.34,1.241,8.377,8.377,0,0,1-3.555.455c-.19-.028-.231-.026-.282,0s-.008.077.054.127c.243.16.489.3.741.439a11.759,11.759,0,0,0,2.376.95,12.653,12.653,0,0,0,12.286-2.873c2.519-2.5,3.4-5.951,3.4-9.405,0-.135.159-.21.254-.281a8.341,8.341,0,0,0,1.671-1.739.529.529,0,0,0,.111-.333V-45.5C336.795-45.551,336.793-45.534,336.708-45.5Z" transform="translate(-171.335 7459.95)" fill="#fff"/>
  </g>
</svg>
