<svg xmlns="http://www.w3.org/2000/svg" width="46" height="46" viewBox="0 0 46 46">
  <g id="Group_59124" data-name="Group 59124" transform="translate(-132 -7398)">
    <circle id="Ellipse_1647" data-name="Ellipse 1647" cx="23" cy="23" r="23" transform="translate(132 7398)" fill="#212f4a"/>
    <g id="Group_59126" data-name="Group 59126" transform="translate(135.206 7402.39)">
      <path id="Path_124" data-name="Path 124" d="M356.462-39.586h3.715v11.933h-3.715Zm1.857-5.929a2.151,2.151,0,0,1,2.151,2.149,2.153,2.153,0,0,1-2.151,2.153,2.152,2.152,0,0,1-2.153-2.153,2.151,2.151,0,0,1,2.153-2.149" transform="translate(-345.326 55.193)" fill="#fff"/>
      <path id="Path_125" data-name="Path 125" d="M361-40.925h3.558v1.633h.049a3.9,3.9,0,0,1,3.513-1.928c3.756,0,4.448,2.47,4.448,5.684v6.544h-3.707v-5.8c0-1.385-.028-3.165-1.928-3.165-1.931,0-2.225,1.507-2.225,3.063v5.9H361Z" transform="translate(-343.819 56.532)" fill="#fff"/>
    </g>
  </g>
</svg>
