<svg id="Group_59001" data-name="Group 59001" xmlns="http://www.w3.org/2000/svg" xmlns:xlink="http://www.w3.org/1999/xlink" width="186.309" height="58.362" viewBox="0 0 186.309 58.362">
  <defs>
    <clipPath id="clip-path">
      <rect id="Rectangle_81" data-name="Rectangle 81" width="186.309" height="58.362" fill="none"/>
    </clipPath>
    <clipPath id="clip-path-2">
      <rect id="Rectangle_80" data-name="Rectangle 80" width="186.309" height="58.362" fill="#fff"/>
    </clipPath>
  </defs>
  <g id="Group_59000" data-name="Group 59000" clip-path="url(#clip-path)">
    <g id="Group_58999" data-name="Group 58999">
      <g id="Group_58998" data-name="Group 58998" clip-path="url(#clip-path-2)">
        <path id="Path_11567" data-name="Path 11567" d="M29.181,0H157.128a29.181,29.181,0,0,1,0,58.362H29.181A29.181,29.181,0,0,1,29.181,0" fill="#212f4a"/>
        <path id="Path_11569" data-name="Path 11569" d="M121.264,63.806l4.63,4.328,5.094-2.705c1.621-.866,1.621-2.272,0-3.138l-5.209-2.813Z" transform="translate(-71.851 -35.242)" fill="#fff"/>
        <path id="Path_11570" data-name="Path 11570" d="M99.077,49.2l4.283-4.112L87.038,36.43a2.337,2.337,0,0,0-1.852-.217Z" transform="translate(-50.474 -21.39)" fill="#fff"/>
        <path id="Path_11571" data-name="Path 11571" d="M99.077,71.966,85.186,85.059a2.651,2.651,0,0,0,1.968-.216l16.438-8.657Z" transform="translate(-50.474 -42.641)" fill="#fff"/>
        <path id="Path_11572" data-name="Path 11572" d="M168.635,40.472a3.237,3.237,0,0,0-2.406,1,3.557,3.557,0,0,0,0,4.882,3.267,3.267,0,0,0,2.406.987,3.373,3.373,0,0,0,2.987-1.752V43.714h-3v.946h1.969v.715a2.123,2.123,0,0,1-1.911,1.006,2.21,2.21,0,0,1-1.7-.7,2.531,2.531,0,0,1-.659-1.782,2.484,2.484,0,0,1,.64-1.752,2.152,2.152,0,0,1,1.658-.694,2.217,2.217,0,0,1,1.911,1.047l.747-.634a3.024,3.024,0,0,0-2.648-1.389" transform="translate(-97.918 -23.98)" fill="#fff"/>
        <path id="Path_11573" data-name="Path 11573" d="M183.971,40.743v6.644H188.3v-.956H185v-2.1h2.4V43.4H185V41.7h3.182v-.956Z" transform="translate(-109.006 -24.141)" fill="#fff"/>
        <path id="Path_11574" data-name="Path 11574" d="M195.929,40.743V41.7h2.153v5.688h1.029V41.7h2.163v-.956Z" transform="translate(-116.091 -24.141)" fill="#fff"/>
        <rect id="Rectangle_77" data-name="Rectangle 77" width="1.028" height="6.644" transform="translate(88.379 16.602)" fill="#fff"/>
        <path id="Path_11575" data-name="Path 11575" d="M221.778,40.743V41.7h2.154v5.688h1.028V41.7h2.163v-.956Z" transform="translate(-131.407 -24.141)" fill="#fff"/>
        <path id="Path_11576" data-name="Path 11576" d="M245.141,40.471a3.209,3.209,0,0,0-2.386,1,3.321,3.321,0,0,0-.97,2.436,3.359,3.359,0,0,0,.97,2.446,3.367,3.367,0,0,0,4.762,0,3.337,3.337,0,0,0,.989-2.446,3.3,3.3,0,0,0-.989-2.436,3.2,3.2,0,0,0-2.376-1m.01.977a2.142,2.142,0,0,1,1.639.7,2.45,2.45,0,0,1,.66,1.742,2.507,2.507,0,0,1-.66,1.772,2.294,2.294,0,0,1-3.288,0,2.5,2.5,0,0,1-.65-1.772,2.449,2.449,0,0,1,.65-1.751,2.161,2.161,0,0,1,1.649-.695" transform="translate(-143.261 -23.98)" fill="#fff"/>
        <path id="Path_11577" data-name="Path 11577" d="M265.56,45.062l-3.889-4.591h-.359v6.755h1.028v-4.49l3.9,4.6h.349V40.582H265.56Z" transform="translate(-154.831 -23.98)" fill="#fff"/>
        <path id="Path_11578" data-name="Path 11578" d="M171.165,69.148a5.666,5.666,0,0,0-4.21,1.744,6.225,6.225,0,0,0,0,8.545,5.717,5.717,0,0,0,4.21,1.727,5.9,5.9,0,0,0,5.228-3.066V74.821h-5.245v1.656h3.446v1.251a3.717,3.717,0,0,1-3.344,1.762,3.867,3.867,0,0,1-2.971-1.233,4.429,4.429,0,0,1-1.154-3.118,4.348,4.348,0,0,1,1.12-3.066,3.766,3.766,0,0,1,2.9-1.216,3.879,3.879,0,0,1,3.344,1.832l1.307-1.11a5.294,5.294,0,0,0-4.634-2.431" transform="translate(-97.918 -40.971)" fill="#fff"/>
        <path id="Path_11579" data-name="Path 11579" d="M198.735,76.455a4.209,4.209,0,0,0-3.123,1.3,4.674,4.674,0,0,0,0,6.413,4.372,4.372,0,0,0,6.247.018,4.432,4.432,0,0,0,1.307-3.224,4.364,4.364,0,0,0-1.307-3.206,4.262,4.262,0,0,0-3.123-1.3m.017,1.691a2.436,2.436,0,0,1,1.833.828,2.837,2.837,0,0,1,.747,2.008,2.9,2.9,0,0,1-.747,2.008,2.44,2.44,0,0,1-1.85.793,2.414,2.414,0,0,1-1.85-.793,2.884,2.884,0,0,1-.73-2.008,2.825,2.825,0,0,1,.73-2.008,2.481,2.481,0,0,1,1.867-.828" transform="translate(-115.149 -45.301)" fill="#fff"/>
        <path id="Path_11580" data-name="Path 11580" d="M222.037,76.455a4.209,4.209,0,0,0-3.123,1.3,4.674,4.674,0,0,0,0,6.413,4.372,4.372,0,0,0,6.247.018,4.432,4.432,0,0,0,1.307-3.224,4.364,4.364,0,0,0-1.307-3.206,4.262,4.262,0,0,0-3.123-1.3m.017,1.691a2.436,2.436,0,0,1,1.833.828,2.837,2.837,0,0,1,.747,2.008,2.9,2.9,0,0,1-.747,2.008,2.44,2.44,0,0,1-1.85.793,2.414,2.414,0,0,1-1.85-.793,2.884,2.884,0,0,1-.73-2.008,2.826,2.826,0,0,1,.73-2.008,2.481,2.481,0,0,1,1.867-.828" transform="translate(-128.955 -45.301)" fill="#fff"/>
        <path id="Path_11581" data-name="Path 11581" d="M248.079,77.881a3.364,3.364,0,0,0-2.954-1.427,3.818,3.818,0,0,0-2.9,1.216,4.789,4.789,0,0,0,0,6.237,3.818,3.818,0,0,0,2.9,1.216,3.471,3.471,0,0,0,2.818-1.216v.6a2.268,2.268,0,0,1-2.5,2.466,4.509,4.509,0,0,1-2.92-1.233l-.984,1.286a5.548,5.548,0,0,0,4.006,1.639,3.889,3.889,0,0,0,4.176-4.264V76.648h-1.647Zm-2.631,5.62a2.447,2.447,0,0,1-1.816-.74,2.71,2.71,0,0,1-.73-1.973,2.627,2.627,0,0,1,.73-1.938,2.539,2.539,0,0,1,4.328,1.92,2.682,2.682,0,0,1-.747,2.026,2.425,2.425,0,0,1-1.765.7" transform="translate(-142.836 -45.3)" fill="#fff"/>
        <rect id="Rectangle_78" data-name="Rectangle 78" width="1.782" height="13.213" transform="translate(108.617 26.785)" fill="#fff"/>
        <path id="Path_11582" data-name="Path 11582" d="M282.043,80.419a3.911,3.911,0,0,0-1.1-2.837,3.651,3.651,0,0,0-2.75-1.128,4.074,4.074,0,0,0-3.072,1.321,4.742,4.742,0,0,0,.033,6.43,4.3,4.3,0,0,0,3.208,1.286,4.583,4.583,0,0,0,3.328-1.392l-.849-1.269a3.527,3.527,0,0,1-2.427,1.022,2.578,2.578,0,0,1-2.716-2.273h6.213a5.683,5.683,0,0,0,.136-1.163m-3.92-2.4a2.05,2.05,0,0,1,2.138,2.114h-4.532a2.47,2.47,0,0,1,2.394-2.114" transform="translate(-162.277 -45.301)" fill="#fff"/>
        <path id="Path_11583" data-name="Path 11583" d="M306.727,69.624V81.252h1.8V76.759h2.291a3.866,3.866,0,0,0,2.751-.987,3.441,3.441,0,0,0,1.052-2.59,3.374,3.374,0,0,0-1.052-2.572,3.868,3.868,0,0,0-2.751-.987Zm4.057,1.656a1.913,1.913,0,1,1,0,3.823h-2.257V71.28Z" transform="translate(-181.74 -41.253)" fill="#fff"/>
        <rect id="Rectangle_79" data-name="Rectangle 79" width="1.782" height="13.213" transform="translate(133.917 26.785)" fill="#fff"/>
        <path id="Path_11584" data-name="Path 11584" d="M339.577,76.455a4,4,0,0,0-3.514,1.85L337.1,79.4a2.971,2.971,0,0,1,2.307-1.286,1.642,1.642,0,0,1,1.782,1.85v.564H338.83c-1.885,0-3.072.969-3.072,2.467s1.154,2.5,2.9,2.5a3.227,3.227,0,0,0,2.665-1.163V85.3h1.664V80.067c0-2.326-1.358-3.612-3.412-3.612m-.543,7.611c-.866,0-1.46-.423-1.46-1.145q0-1.057,1.477-1.057h2.138v.159a2.06,2.06,0,0,1-2.155,2.044" transform="translate(-198.941 -45.301)" fill="#fff"/>
        <path id="Path_11585" data-name="Path 11585" d="M359.444,83.237l-2.393-6.307h-1.919l3.328,8.263-.34.811a1.766,1.766,0,0,1-1.816,1.268c-.136,0-.458-.018-.984-.07v1.568a5.269,5.269,0,0,0,1.375.176c1.425,0,2.359-.74,3.055-2.378l4.057-9.637h-1.9Z" transform="translate(-210.421 -45.582)" fill="#fff"/>
        <path id="Path_11682" data-name="Path 11682" d="M34.5,16.234V40.82L47,28.315Z" fill="#fff"/>
      </g>
    </g>
  </g>
</svg>
