<svg xmlns="http://www.w3.org/2000/svg" width="24.777" height="24.776" viewBox="0 0 24.777 24.776">
  <g id="Layer_2" data-name="Layer 2" transform="translate(-1.361 -3)">
    <path id="Path_11540" data-name="Path 11540" d="M21.652,20.838a2.769,2.769,0,0,0-2.143-.656,2.806,2.806,0,0,0-1.93,1.1l-.074.11a1.473,1.473,0,0,1-1.473.575,9.906,9.906,0,0,1-8.095-8.146,1.473,1.473,0,0,1,.574-1.436l.11-.081a2.791,2.791,0,0,0,.442-4.051L7.937,6.932a2.88,2.88,0,0,0-4.633.3L2.053,9.208a5.561,5.561,0,0,0-.574,3.823A19.931,19.931,0,0,0,16.872,28.424,5.325,5.325,0,0,0,18,28.542a5.576,5.576,0,0,0,2.733-.737L22.668,26.6a2.88,2.88,0,0,0,.3-4.6Z" transform="translate(0 -0.765)" fill="#fff"/>
    <path id="Path_11541" data-name="Path 11541" d="M17.737,12.473a5.156,5.156,0,0,1,5.156,5.156.737.737,0,1,0,1.473,0A6.629,6.629,0,0,0,17.737,11a.737.737,0,1,0,0,1.473Z" transform="translate(-4.12 -2.108)" fill="#fff"/>
    <path id="Path_11542" data-name="Path 11542" d="M17.737,8.473a8.1,8.1,0,0,1,8.1,8.1.737.737,0,1,0,1.473,0A9.575,9.575,0,0,0,17.737,7a.737.737,0,1,0,0,1.473Z" transform="translate(-4.12 -1.054)" fill="#fff"/>
    <path id="Path_11543" data-name="Path 11543" d="M17.737,3a.737.737,0,1,0,0,1.473A11.048,11.048,0,0,1,28.785,15.521a.737.737,0,0,0,1.473,0A12.521,12.521,0,0,0,17.737,3Z" transform="translate(-4.12)" fill="#fff"/>
  </g>
</svg>
