<svg xmlns="http://www.w3.org/2000/svg" width="23.997" height="24.42" viewBox="0 0 23.997 24.42">
  <path id="Path_3822" data-name="Path 3822" d="M15.411,0h-.039a11.978,11.978,0,0,0-9.4,19.444L4.23,23.506a.651.651,0,0,0,.34.86.665.665,0,0,0,.369.045l6.405-1.125a11.547,11.547,0,0,0,3.991.694A11.99,11.99,0,1,0,15.411,0ZM11.3,9.59h3.531a.655.655,0,0,1,0,1.308H11.3a.655.655,0,0,1,0-1.308Zm8.108,4.58H11.3a.655.655,0,0,1,0-1.308h8.108a.655.655,0,1,1,0,1.308Z" transform="translate(-3.366)" fill="#fff"/>
</svg>
